<svg width="64" height="64" viewBox="0 0 64 64" fill="none" xmlns="http://www.w3.org/2000/svg">
<g clip-path="url(#clip0_385_3595)">
<circle cx="32" cy="32" r="32" fill="#F6F7FA"/>
<g clip-path="url(#clip1_385_3595)">
<path d="M54.6093 69.0003C54.6093 51.5639 44.2639 46.6934 31.5 46.6934C18.736 46.6934 8.39062 51.5639 8.39062 69.0003H54.6093Z" fill="#29565D"/>
<path d="M31.5001 38.5771C33.1024 38.5771 34.4084 39.8861 34.4084 41.5055V46.8022C34.4084 48.0807 33.3745 49.1218 32.1048 49.1218H30.8955C29.6257 49.1218 28.5918 48.0807 28.5918 46.8022V41.5055C28.5918 39.8922 29.8918 38.5771 31.5001 38.5771Z" fill="url(#paint0_linear_385_3595)"/>
<path d="M50.1716 26.0178C50.1716 37.0738 42.4806 44.9093 31.5004 44.9093C20.5201 44.9093 12.8291 37.0738 12.8291 26.0178C12.8291 14.9617 20.5201 6 31.5004 6C42.4806 6 50.1716 14.9617 50.1716 26.0178Z" fill="#F7CBAD"/>
<path d="M26.8441 28.1482C27.8092 28.1482 28.5915 27.0034 28.5915 25.5912C28.5915 24.179 27.8092 23.0342 26.8441 23.0342C25.879 23.0342 25.0967 24.179 25.0967 25.5912C25.0967 27.0034 25.879 28.1482 26.8441 28.1482Z" fill="#160A00"/>
<path d="M36.1556 28.1482C37.1207 28.1482 37.903 27.0034 37.903 25.5912C37.903 24.179 37.1207 23.0342 36.1556 23.0342C35.1905 23.0342 34.4082 24.179 34.4082 25.5912C34.4082 27.0034 35.1905 28.1482 36.1556 28.1482Z" fill="#160A00"/>
<path d="M47.8795 27.3996C47.3293 30.9124 48.6232 34.0417 50.7758 34.3827C52.9283 34.7236 54.325 32.5745 55.6613 28.6355C56.804 25.2687 54.9175 21.9933 52.765 21.6524C50.6125 21.3114 48.4298 23.8867 47.8795 27.3996Z" fill="#F7CBAD"/>
<path d="M15.1206 27.3996C15.6709 30.9124 14.3769 34.0417 12.2244 34.3827C10.0719 34.7236 8.67518 32.5745 7.33892 28.6355C6.19615 25.2687 8.08263 21.9933 10.2351 21.6524C12.3877 21.3114 14.5704 23.8867 15.1206 27.3996Z" fill="#F7CBAD"/>
<path d="M36.2832 30.9795C36.2832 33.3782 33.4716 34.1027 31.5005 34.1027C29.5293 34.1027 26.7178 33.3782 26.7178 30.9795" fill="#160A00"/>
</g>
</g>
<defs>
<linearGradient id="paint0_linear_385_3595" x1="31.5001" y1="51.9954" x2="31.5001" y2="32.1724" gradientUnits="userSpaceOnUse">
<stop offset="0.31" stop-color="#F7CBAD"/>
<stop offset="0.34" stop-color="#EEC3AA"/>
<stop offset="0.38" stop-color="#D7AFA5"/>
<stop offset="0.43" stop-color="#B18E9C"/>
<stop offset="0.49" stop-color="#7D608F"/>
<stop offset="0.55" stop-color="#3B267F"/>
<stop offset="0.59" stop-color="#100075"/>
</linearGradient>
<clipPath id="clip0_385_3595">
<rect width="64" height="64" rx="32" fill="white"/>
</clipPath>
<clipPath id="clip1_385_3595">
<rect width="49" height="63" fill="white" transform="translate(7 6)"/>
</clipPath>
</defs>
</svg>
