<svg width="360" height="556" viewBox="0 0 360 556" fill="none" xmlns="http://www.w3.org/2000/svg">
<g filter="url(#filter0_d_226_2610)">
<rect x="20" y="28" width="320" height="492" rx="16" fill="white"/>
<path d="M109.636 438.912V445.242H108.351V438.912H109.636ZM99.6283 444.271C101.529 443.684 102.711 442.207 102.718 440.621H99.9701V439.568H106.724V440.621H104.031C104.031 442.118 105.2 443.499 107.107 444.039L106.478 445.037C105.029 444.606 103.949 443.684 103.395 442.508C102.855 443.807 101.734 444.825 100.23 445.297L99.6283 444.271ZM101.597 446.801V445.803H109.65V448.838H102.896V450.027H110.06V451.039H101.638V447.895H108.365V446.801H101.597ZM122.508 445.105V446.158H117.641V448.537H116.356V446.158H111.298V445.105H122.508ZM112.692 450.902V447.375H113.991V449.85H121.264V450.902H112.692ZM112.733 443.834V439.486H121.059V443.834H112.733ZM114.005 442.809H119.774V440.512H114.005V442.809Z" fill="#C5C6CA"/>
<path d="M127 450.096C126.467 450.089 126.022 449.658 126.029 449.125C126.022 448.592 126.467 448.154 127 448.154C127.526 448.154 127.964 448.592 127.971 449.125C127.964 449.658 127.526 450.089 127 450.096ZM126.029 443.725C126.022 443.191 126.467 442.754 127 442.754C127.526 442.754 127.964 443.191 127.971 443.725C127.964 444.258 127.526 444.688 127 444.695C126.467 444.688 126.022 444.258 126.029 443.725Z" fill="#C5C6CA"/>
<path d="M135.238 450.137C133.365 450.137 131.957 448.995 131.889 447.416H133.352C133.434 448.257 134.24 448.872 135.238 448.879C136.441 448.872 137.303 448.004 137.303 446.828C137.303 445.625 136.414 444.75 135.17 444.736C134.377 444.736 133.769 445.003 133.434 445.611H132.012L132.654 440.102H138.26V441.387H133.898L133.57 444.162H133.666C134.076 443.766 134.773 443.499 135.525 443.492C137.392 443.499 138.766 444.88 138.766 446.787C138.766 448.735 137.303 450.137 135.238 450.137ZM150.148 438.912V451.162H148.904V444.805H147.386V450.574H146.169V439.24H147.386V443.752H148.904V438.912H150.148ZM139.62 447.662C142.341 446.117 143.483 444.032 143.688 441.537H140.14V440.471H144.952C144.946 443.69 143.879 446.589 140.372 448.564L139.62 447.662Z" fill="#C5C6CA"/>
<path d="M171.883 448.537V449.604H160.672V448.537H165.58V445.625H166.865V448.537H171.883ZM161.055 444.777C163.413 444.381 165.519 442.562 165.525 440.621V439.691H166.893V440.621C166.893 442.562 169.025 444.381 171.391 444.777L170.83 445.844C168.841 445.454 167.023 444.224 166.216 442.549C165.409 444.217 163.605 445.454 161.629 445.844L161.055 444.777ZM183.703 448.551V449.631H172.492V448.551H175.171V445.352C174.166 444.798 173.551 443.923 173.558 442.822C173.551 440.895 175.445 439.63 178.07 439.623C180.702 439.63 182.595 440.895 182.595 442.822C182.595 443.902 182.007 444.771 181.023 445.324V448.551H183.703ZM174.816 442.822C174.816 444.135 176.149 444.989 178.07 444.996C179.977 444.989 181.33 444.135 181.337 442.822C181.33 441.503 179.977 440.662 178.07 440.662C176.149 440.662 174.816 441.503 174.816 442.822ZM176.456 448.551H179.71V445.83C179.211 445.946 178.658 446.008 178.07 446.008C177.495 446.008 176.949 445.946 176.456 445.83V448.551ZM188.809 442.029C188.796 444.265 190.149 446.521 192.049 447.361L191.27 448.387C189.862 447.717 188.748 446.343 188.173 444.668C187.606 446.466 186.478 447.942 185.008 448.66L184.215 447.566C186.143 446.712 187.497 444.367 187.497 442.029V439.938H188.809V442.029ZM193.157 451.189V438.912H194.456V451.189H193.157ZM205.756 438.912V442.535H207.533V443.615H205.756V447.812H204.443V438.912H205.756ZM196.117 445.434C198.988 444.572 200.766 442.938 201.018 440.922H196.637V439.842H202.434C202.434 443.055 200.246 445.386 196.664 446.473L196.117 445.434ZM197.976 450.902V446.896H199.289V449.85H206.262V450.902H197.976Z" fill="#C5C6CA"/>
<path d="M212 450.096C211.467 450.089 211.022 449.658 211.029 449.125C211.022 448.592 211.467 448.154 212 448.154C212.526 448.154 212.964 448.592 212.971 449.125C212.964 449.658 212.526 450.089 212 450.096ZM211.029 443.725C211.022 443.191 211.467 442.754 212 442.754C212.526 442.754 212.964 443.191 212.971 443.725C212.964 444.258 212.526 444.688 212 444.695C211.467 444.688 211.022 444.258 211.029 443.725Z" fill="#C5C6CA"/>
<path d="M220.238 450.137C218.365 450.137 216.957 448.995 216.889 447.416H218.352C218.434 448.257 219.24 448.872 220.238 448.879C221.441 448.872 222.303 448.004 222.303 446.828C222.303 445.625 221.414 444.75 220.17 444.736C219.377 444.736 218.769 445.003 218.434 445.611H217.012L217.654 440.102H223.26V441.387H218.898L218.57 444.162H218.666C219.076 443.766 219.773 443.499 220.525 443.492C222.392 443.499 223.766 444.88 223.766 446.787C223.766 448.735 222.303 450.137 220.238 450.137ZM225.523 445.83C225.981 445.324 226.534 445.064 227.15 445.064C228.216 445.064 229.159 445.844 230.199 445.844C230.821 445.844 231.367 445.563 231.798 445.023V446.336C231.34 446.842 230.786 447.102 230.171 447.102C229.105 447.102 228.155 446.322 227.109 446.322C226.5 446.322 225.953 446.603 225.523 447.143V445.83ZM237.465 440.102V450H235.948V441.605H235.893L233.528 443.15V441.715L235.989 440.102H237.465ZM243.146 450.137C240.856 450.137 239.51 448.291 239.51 445.051C239.51 441.831 240.87 439.965 243.146 439.965C245.416 439.965 246.776 441.831 246.783 445.051C246.776 448.291 245.436 450.137 243.146 450.137ZM241.014 445.051C241.007 447.519 241.806 448.838 243.146 448.838C244.479 448.838 245.279 447.519 245.279 445.051C245.279 442.59 244.472 441.243 243.146 441.236C241.813 441.243 241.014 442.59 241.014 445.051ZM258.835 445.324V446.363H253.968V448.619H252.683V446.363H247.624V445.324H258.835ZM249.019 450.902V447.553H250.304V449.85H257.591V450.902H249.019ZM249.101 444.244V439.295H250.386V440.785H256.06V439.295H257.359V444.244H249.101ZM250.386 443.205H256.06V441.756H250.386V443.205Z" fill="#C5C6CA"/>
<path d="M52.2037 78.4473C55.6402 78.4473 58.2242 80.1875 58.233 82.8242C58.2242 85.2412 56.1852 86.8584 53.3111 87.1748V89.9082H59.5514V91.7539H44.9088V89.9082H51.0787V87.1748C48.2223 86.8496 46.192 85.2324 46.192 82.8242C46.192 80.1875 48.7672 78.4473 52.2037 78.4473ZM48.4068 82.8242C48.4068 84.5117 49.9625 85.4521 52.2037 85.4609C54.4537 85.4521 56.0094 84.5117 56.0182 82.8242C56.0094 81.2246 54.4537 80.2314 52.2037 80.2402C49.9625 80.2314 48.4068 81.2246 48.4068 82.8242ZM73.0429 80.8555V82.6309H61.916V77.8145H64.1484V80.8555H73.0429ZM60.0879 85.4785V83.7031H74.7304V85.4785H60.0879ZM61.7578 88.168V86.4453H72.9726V90.6992H64.0429V91.7188H73.4648V93.4414H61.7929V89.082H70.7402V88.168H61.7578ZM80.4876 78.6934C83.0277 78.6846 84.9085 80.3193 84.9173 82.6133C84.9085 84.916 83.0277 86.542 80.4876 86.5508C77.9652 86.542 76.0316 84.916 76.0404 82.6133C76.0316 80.3193 77.9652 78.6846 80.4876 78.6934ZM75.3724 88.5547C78.2288 88.5635 82.1839 88.5283 85.6029 88.0449L85.7786 89.6621C82.2279 90.3564 78.431 90.3828 75.6361 90.3828L75.3724 88.5547ZM78.2728 82.6133C78.264 83.8789 79.222 84.6084 80.4876 84.5996C81.762 84.6084 82.7288 83.8789 82.7376 82.6133C82.7288 81.3652 81.762 80.627 80.4876 80.627C79.222 80.627 78.264 81.3652 78.2728 82.6133ZM86.5169 93.6523V77.6211H88.7493V93.6523H86.5169ZM103.621 78.6582V79.6426C103.604 80.9609 103.604 82.7275 103.129 85.2939C103.7 85.25 104.263 85.2061 104.816 85.1445L104.975 86.7969C103.498 87.0078 101.995 87.1396 100.51 87.2275V92.7383H98.2598V87.333C96.9327 87.3682 95.6582 87.377 94.4629 87.377L94.1817 85.5664C96.212 85.5576 98.5411 85.54 100.87 85.4346C101.011 84.7314 101.125 84.0811 101.204 83.4834L95.4297 83.9844L95.1309 82.1387L101.362 81.875C101.398 81.3477 101.406 80.8818 101.415 80.4512H95.5176V78.6582H103.621ZM105.731 93.6172V77.6211H107.998V93.6172H105.731ZM124.126 89.8555V91.6836H109.484V89.8555H124.126ZM110.081 85.7422C113.579 85.2061 115.592 83.0176 115.601 80.7852V80.7676H110.697V78.9746H122.843V80.7676H117.956V80.7852C117.948 83.0176 119.969 85.127 123.581 85.6719L122.703 87.4473C119.899 86.9551 117.825 85.5752 116.787 83.6943C115.777 85.6191 113.729 87.043 110.96 87.5352L110.081 85.7422Z" fill="#152B2E"/>
<path d="M53.1289 104.496V109.934H52.0273V107.672H49.7305V109.547H44.8906V104.977H46.0039V106.371H48.6289V104.977H49.7305V106.758H52.0273V104.496H53.1289ZM46.0039 108.668H48.6289V107.25H46.0039V108.668ZM46.2617 111.293V110.402H53.1289V112.992H47.3984V113.977H53.5039V114.867H46.2852V112.172H52.0273V111.293H46.2617ZM63.4475 104.496V114.996H62.3225V109.184H60.6233V108.211H62.3225V104.496H63.4475ZM54.3186 111.844C55.6252 110.854 55.9358 109.031 55.9475 107.602V105.398H56.9905V107.602C56.9846 108.709 57.1487 110.197 57.9338 111.264C58.7014 110.221 58.8538 108.75 58.8655 107.602V105.398H59.9319V107.602C59.9202 109.061 60.219 110.877 61.5491 111.844L60.8459 112.641C60.0901 112.084 59.6448 111.199 59.3928 110.221C59.1467 111.229 58.7073 112.154 57.928 112.723C57.1487 112.154 56.7092 111.229 56.4631 110.227C56.2112 111.188 55.7834 112.055 55.0686 112.605L54.3186 111.844ZM74.6628 105.516V114H73.4792L69.1784 107.801H69.1081V114H67.8191V105.516H69.0144L73.3152 111.727H73.3972V105.516H74.6628ZM84.4306 104.496V110.695H83.3173V109.137H81.0322V109.992H76.1572V105.281H81.0322V106.148H83.3173V104.496H84.4306ZM77.2588 109.102H79.9423V106.172H77.2588V109.102ZM77.3642 112.992C77.3584 111.721 78.706 110.982 80.915 110.988C83.1123 110.982 84.4599 111.721 84.4658 112.992C84.4599 114.258 83.1123 114.979 80.915 114.973C78.706 114.979 77.3584 114.258 77.3642 112.992ZM78.4658 112.992C78.4599 113.695 79.374 114.111 80.915 114.117C82.4443 114.111 83.3584 113.695 83.3642 112.992C83.3584 112.254 82.4443 111.85 80.915 111.844C79.374 111.85 78.4599 112.254 78.4658 112.992ZM81.0322 108.234H83.3173V107.039H81.0322V108.234ZM89.2297 105.246C90.8879 105.24 92.0832 106.266 92.0891 107.742C92.0832 109.219 90.8879 110.244 89.2297 110.25C87.5773 110.244 86.3645 109.219 86.3703 107.742C86.3645 106.266 87.5773 105.24 89.2297 105.246ZM85.8664 111.832C87.7766 111.832 90.425 111.814 92.7219 111.48L92.8039 112.289C90.4309 112.746 87.882 112.758 86.007 112.758L85.8664 111.832ZM87.4719 107.742C87.4602 108.674 88.2102 109.277 89.2297 109.277C90.2492 109.277 90.9992 108.674 90.9992 107.742C90.9992 106.822 90.2492 106.207 89.2297 106.207C88.2102 106.207 87.4602 106.822 87.4719 107.742ZM93.3781 115.02V104.496H94.4914V115.02H93.3781ZM102.308 106.664C102.308 107.877 103.257 109.002 104.863 109.465L104.347 110.332C103.134 109.98 102.238 109.236 101.769 108.281C101.306 109.33 100.392 110.145 99.1442 110.531L98.6052 109.664C100.211 109.189 101.207 107.994 101.207 106.664V106.559H98.9216V105.668H101.207V104.449H102.32V105.668H104.593V106.559H102.308V106.664ZM100.175 114.867V111.164H106.879V114.867H100.175ZM101.265 113.965H105.777V112.043H101.265V113.965ZM105.765 110.695V104.496H106.879V107.098H108.402V108.023H106.879V110.695H105.765ZM111.607 105.281C112.568 105.287 113.353 105.832 113.816 106.781H116.412V104.496H117.514V115.02H116.412V110.988H113.893C113.441 112.043 112.621 112.658 111.607 112.652C110.043 112.658 108.935 111.229 108.947 108.961C108.935 106.717 110.043 105.287 111.607 105.281ZM110.002 108.961C110.008 110.631 110.658 111.656 111.607 111.656C112.557 111.656 113.207 110.631 113.213 108.961C113.207 107.314 112.557 106.283 111.607 106.277C110.658 106.283 110.008 107.314 110.002 108.961ZM114.133 107.695C114.215 108.082 114.268 108.504 114.268 108.961C114.268 109.359 114.232 109.729 114.162 110.074H116.412V107.695H114.133ZM122.547 107.59C122.541 109.248 123.637 111.1 125.231 111.855L124.598 112.723C123.42 112.16 122.483 110.977 122.008 109.605C121.527 111.1 120.543 112.395 119.348 112.992L118.692 112.113C120.285 111.346 121.44 109.365 121.445 107.59V106.477H119.078V105.551H124.832V106.477H122.547V107.59ZM125.957 114.996V104.496H127.07V108.656H128.758V109.594H127.07V114.996H125.957ZM138.608 108.797V109.688H129.022V108.797H138.608ZM130.17 111.375V110.52H137.389V113.062H131.272V114H137.682V114.879H130.182V112.242H136.287V111.375H130.17ZM130.276 108.035V104.801H137.366V105.703H131.389V107.145H137.471V108.035H130.276ZM147.848 104.496V115.02H146.735V104.496H147.848ZM139.516 108.961C139.516 106.717 140.647 105.287 142.235 105.281C143.794 105.287 144.942 106.717 144.942 108.961C144.942 111.229 143.794 112.658 142.235 112.652C140.647 112.658 139.516 111.229 139.516 108.961ZM140.594 108.961C140.589 110.631 141.256 111.656 142.235 111.656C143.196 111.656 143.864 110.631 143.864 108.961C143.864 107.314 143.196 106.283 142.235 106.277C141.256 106.283 140.589 107.314 140.594 108.961ZM156.755 105.129C158.999 105.135 160.634 106.242 160.634 107.918C160.634 109.488 159.263 110.537 157.306 110.695V112.758H161.583V113.684H151.974V112.758H156.204V110.695C154.259 110.537 152.882 109.488 152.888 107.918C152.882 106.242 154.523 105.135 156.755 105.129ZM153.966 107.918C153.966 109.096 155.138 109.828 156.755 109.84C158.384 109.828 159.55 109.096 159.556 107.918C159.55 106.781 158.384 106.031 156.755 106.043C155.138 106.031 153.966 106.781 153.966 107.918ZM170.577 106.887V107.789H163.37V104.648H164.46V106.887H170.577ZM162.093 109.605V108.715H171.702V109.605H162.093ZM163.265 111.316V110.449H170.495V113.016H164.402V113.988H170.859V114.867H163.288V112.195H169.394V111.316H163.265ZM175.658 105.246C177.316 105.24 178.511 106.266 178.517 107.742C178.511 109.219 177.316 110.244 175.658 110.25C174.005 110.244 172.793 109.219 172.798 107.742C172.793 106.266 174.005 105.24 175.658 105.246ZM172.295 111.832C174.205 111.832 176.853 111.814 179.15 111.48L179.232 112.289C176.859 112.746 174.31 112.758 172.435 112.758L172.295 111.832ZM173.9 107.742C173.888 108.674 174.638 109.277 175.658 109.277C176.677 109.277 177.427 108.674 177.427 107.742C177.427 106.822 176.677 106.207 175.658 106.207C174.638 106.207 173.888 106.822 173.9 107.742ZM179.806 115.02V104.496H180.92V115.02H179.806ZM191.104 105.234V105.762C191.098 106.547 191.098 107.801 190.77 109.6C191.209 109.57 191.643 109.535 192.065 109.488L192.135 110.32C191.098 110.461 190.025 110.549 188.971 110.607V114.387H187.857V110.654C186.902 110.684 185.982 110.695 185.139 110.695L184.986 109.781C186.399 109.77 188.027 109.752 189.65 109.67C189.768 109.096 189.844 108.574 189.902 108.105L185.842 108.457L185.678 107.52L189.973 107.297C190.008 106.852 190.014 106.471 190.014 106.148H185.9V105.234H191.104ZM192.768 114.996V104.496H193.893V114.996H192.768ZM204.797 112.723V113.637H195.188V112.723H204.797ZM195.633 110.098C197.584 109.781 199.395 108.328 199.395 106.723V106.395H195.985V105.492H203.965V106.395H200.555V106.723C200.555 108.328 202.377 109.746 204.375 110.062L203.93 110.941C202.231 110.625 200.666 109.641 199.981 108.258C199.307 109.652 197.754 110.666 196.09 110.988L195.633 110.098ZM214.354 104.496V114.996H213.288V104.496H214.354ZM205.436 109.031C205.436 106.758 206.327 105.334 207.698 105.34C208.975 105.334 209.836 106.547 209.965 108.516H211.155V104.695H212.221V114.48H211.155V109.418H209.971C209.872 111.469 208.999 112.74 207.698 112.734C206.327 112.74 205.436 111.311 205.436 109.031ZM206.467 109.031C206.467 110.701 206.942 111.686 207.698 111.68C208.471 111.686 208.952 110.701 208.952 109.031C208.952 107.355 208.471 106.377 207.698 106.383C206.942 106.377 206.467 107.355 206.467 109.031ZM221.819 106.664C221.819 107.877 222.769 109.002 224.374 109.465L223.858 110.332C222.646 109.98 221.749 109.236 221.28 108.281C220.817 109.33 219.903 110.145 218.655 110.531L218.116 109.664C219.722 109.189 220.718 107.994 220.718 106.664V106.559H218.433V105.668H220.718V104.449H221.831V105.668H224.105V106.559H221.819V106.664ZM219.687 114.867V111.164H226.39V114.867H219.687ZM220.776 113.965H225.288V112.043H220.776V113.965ZM225.276 110.695V104.496H226.39V107.098H227.913V108.023H226.39V110.695H225.276ZM231.118 105.281C232.079 105.287 232.865 105.832 233.327 106.781H235.923V104.496H237.025V115.02H235.923V110.988H233.404C232.952 112.043 232.132 112.658 231.118 112.652C229.554 112.658 228.447 111.229 228.458 108.961C228.447 106.717 229.554 105.287 231.118 105.281ZM229.513 108.961C229.519 110.631 230.169 111.656 231.118 111.656C232.068 111.656 232.718 110.631 232.724 108.961C232.718 107.314 232.068 106.283 231.118 106.277C230.169 106.283 229.519 107.314 229.513 108.961ZM233.644 107.695C233.726 108.082 233.779 108.504 233.779 108.961C233.779 109.359 233.743 109.729 233.673 110.074H235.923V107.695H233.644ZM247.355 104.508V111H246.3V108.234H245.105V110.848H244.062V104.66H245.105V107.332H246.3V104.508H247.355ZM238.343 106.523V105.633H240.464V104.543H241.566V105.633H243.652V106.523H238.343ZM238.753 108.809C238.753 107.701 239.691 106.992 241.003 106.992C242.345 106.992 243.277 107.701 243.277 108.809C243.277 109.881 242.345 110.613 241.003 110.613C239.691 110.613 238.753 109.881 238.753 108.809ZM239.046 114.023C240.376 113.602 241.126 112.57 241.132 111.621V111.305H242.222V111.621C242.216 112.477 242.65 113.367 243.587 113.895C244.537 113.32 245 112.371 245 111.621V111.305H246.101V111.621C246.095 112.629 246.828 113.637 248.187 114.023L247.66 114.867C246.617 114.527 245.908 113.848 245.539 113.016C245.216 113.83 244.589 114.586 243.617 114.961C242.609 114.598 241.976 113.889 241.654 113.062C241.273 113.854 240.564 114.521 239.574 114.867L239.046 114.023ZM239.75 108.809C239.75 109.406 240.259 109.787 241.003 109.793C241.759 109.787 242.275 109.406 242.269 108.809C242.275 108.182 241.759 107.807 241.003 107.812C240.259 107.807 239.75 108.182 239.75 108.809ZM251.381 105.281C252.81 105.287 253.847 106.494 254.017 108.434H256.185V104.496H257.287V115.02H256.185V109.336H254.029C253.906 111.387 252.845 112.658 251.381 112.652C249.816 112.658 248.709 111.229 248.72 108.961C248.709 106.717 249.816 105.287 251.381 105.281ZM249.775 108.961C249.781 110.631 250.431 111.656 251.381 111.656C252.33 111.656 252.98 110.631 252.986 108.961C252.98 107.314 252.33 106.283 251.381 106.277C250.431 106.283 249.781 107.314 249.775 108.961ZM268.273 112.758V113.684H258.664V112.758H260.961V110.016C260.1 109.541 259.572 108.791 259.578 107.848C259.572 106.195 261.195 105.111 263.445 105.105C265.701 105.111 267.324 106.195 267.324 107.848C267.324 108.773 266.82 109.518 265.977 109.992V112.758H268.273ZM260.656 107.848C260.656 108.973 261.799 109.705 263.445 109.711C265.08 109.705 266.24 108.973 266.246 107.848C266.24 106.717 265.08 105.996 263.445 105.996C261.799 105.996 260.656 106.717 260.656 107.848ZM262.062 112.758H264.852V110.426C264.424 110.525 263.949 110.578 263.445 110.578C262.953 110.578 262.484 110.525 262.062 110.426V112.758ZM270.729 105.516L270.623 111.551H269.463L269.358 105.516H270.729ZM269.217 113.25C269.211 112.793 269.592 112.418 270.049 112.418C270.5 112.418 270.875 112.793 270.881 113.25C270.875 113.707 270.5 114.076 270.049 114.082C269.592 114.076 269.211 113.707 269.217 113.25Z" fill="#C5C6CA"/>
<path d="M51.9219 57.5156V66H50.7383L46.4375 59.8008H46.3672V66H45.0781V57.5156H46.2734L50.5742 63.7266H50.6562V57.5156H51.9219Z" fill="#22C786"/>
<path d="M56.5741 56.8477C58.1562 56.8594 59.3163 57.832 59.328 59.2031C59.3163 60.5859 58.1562 61.5469 56.5741 61.5469C54.9804 61.5469 53.8085 60.5859 53.8085 59.2031C53.8085 57.832 54.9804 56.8594 56.5741 56.8477ZM56.5741 57.7852C55.6015 57.7734 54.8866 58.3477 54.8984 59.2031C54.8866 60.0703 55.6015 60.6445 56.5741 60.6445C57.5351 60.6445 58.2499 60.0703 58.2499 59.2031C58.2499 58.3477 57.5351 57.7734 56.5741 57.7852ZM62.3046 56.4961V61.8398H61.1913V56.4961H62.3046ZM62.3046 62.3203V64.9688H56.5155V65.9766H62.6562V66.8672H55.4374V64.1367H61.203V63.2109H55.4023V62.3203H62.3046ZM67.3263 59.8711C67.3263 61.4883 68.3107 63.1992 69.881 63.9492L69.2482 64.793C68.1056 64.2539 67.2443 63.1582 66.799 61.875C66.3361 63.2637 65.422 64.4238 64.2209 64.9805L63.5998 64.125C65.1935 63.3984 66.2365 61.6055 66.2365 59.8711V59.1797H63.9162V58.2891H66.2248V56.707H67.3498V58.2891H69.6349V59.1797H67.3263V59.8711ZM71.9084 56.4961V60.7266H73.5959V61.6641H71.9084V66.9961H70.7951V56.4961H71.9084ZM86.112 61.1016V61.9336H81.8815V62.8125H84.9166V65.1797H78.7995V66.0469H85.2096V66.8906H77.7096V64.4062H83.8151V63.6211H77.6979V62.8125H80.7799V61.9336H76.5612V61.1016H86.112ZM81.8815 56.4492V57.375H85.1627V58.2305H81.9752C82.1862 59.1211 83.61 59.7422 85.6432 59.8477L85.3034 60.6914C83.4752 60.5625 81.987 60.0234 81.3307 59.0977C80.6745 60.0234 79.1862 60.5625 77.3463 60.6914L77.0299 59.8477C79.0455 59.7422 80.4635 59.1211 80.6979 58.2305H77.5104V57.375H80.7799V56.4492H81.8815ZM90.3837 58.1719C90.372 59.5664 91.3329 60.8789 92.9149 61.4062L92.3055 62.2969C91.1454 61.8809 90.2899 61.0312 89.8446 59.9648C89.3817 61.1367 88.4911 62.0566 87.2665 62.5195L86.6688 61.6172C88.3095 61.043 89.2587 59.6602 89.2704 58.1133V57.0352H90.3837V58.1719ZM95.4345 63.2695V66.9961H94.3212V64.1484H88.3212V63.2695H95.4345ZM95.4345 56.4961V62.7188H94.3212V59.5312H92.1063V58.6172H94.3212V56.4961H95.4345ZM102.642 59.7188C102.642 61.3711 103.404 63.0586 104.857 63.832L104.236 64.6523C103.222 64.1133 102.513 63.1055 102.138 61.9102C101.757 63.1934 101.054 64.2949 100.04 64.8984L99.3841 64.0547C100.837 63.2109 101.587 61.418 101.599 59.7188V59.2969H99.7006V58.3828H101.599V56.8711H102.642V58.3828H104.505V59.2969H102.642V59.7188ZM108.513 56.4961V66.9961H107.447V56.4961H108.513ZM106.38 56.7188V66.4688H105.326V61.5117H103.814V60.5859H105.326V56.7188H106.38ZM118.082 57.5156V58.793C118.082 60.3281 118.082 61.7695 117.625 63.9492L116.523 63.8438C116.746 62.8828 116.863 62.0391 116.921 61.2539L110.617 61.5938L110.476 60.6797L116.98 60.4336C116.998 59.8711 116.998 59.332 117.004 58.793V58.4297H110.769V57.5156H118.082ZM119.207 64.6758V65.5898H109.632V64.6758H119.207ZM129.338 61.3594V62.2617H125.096V63.2695C127.023 63.375 128.166 64.0254 128.166 65.1211C128.166 66.3164 126.806 66.9844 124.545 66.9727C122.26 66.9844 120.9 66.3164 120.9 65.1211C120.9 64.0254 122.043 63.375 123.994 63.2695V62.2617H119.764V61.3594H129.338ZM124.545 64.1133C122.939 64.1133 122.025 64.4766 122.025 65.1211C122.025 65.7539 122.939 66.1289 124.545 66.1172C126.127 66.1289 127.053 65.7539 127.053 65.1211C127.053 64.4766 126.127 64.1133 124.545 64.1133ZM128.482 56.9766V57.8672H125.295C125.453 58.8809 126.93 59.7422 128.846 59.9297L128.447 60.8086C126.631 60.5977 125.125 59.8301 124.556 58.7109C123.971 59.8301 122.471 60.5977 120.654 60.8086L120.267 59.9297C122.154 59.7422 123.637 58.8809 123.795 57.8672H120.642V56.9766H128.482ZM131.828 57.5156L131.723 63.5508H130.563L130.457 57.5156H131.828ZM131.149 66.082C130.691 66.082 130.305 65.707 130.316 65.25C130.305 64.793 130.691 64.418 131.149 64.418C131.594 64.418 131.981 64.793 131.981 65.25C131.981 65.707 131.594 66.082 131.149 66.082Z" fill="#22C786"/>
<line x1="44" y1="127.5" x2="316" y2="127.5" stroke="#152B2E" stroke-opacity="0.16"/>
<path d="M181.754 315.28C134.256 315.28 94.6736 300.52 85.6777 281.08C102.23 331.84 92.1548 379 181.754 379C271.353 379 261.278 331.84 277.83 281.08C268.834 300.52 229.252 315.28 181.754 315.28Z" fill="#3E4347"/>
<path d="M137.495 229.599C188.232 215.559 304.819 236.799 279.271 285.039C293.304 300.879 298.342 317.799 231.412 316.719C128.499 340.839 43.5778 290.799 81.0008 252.999C72.0048 234.639 91.7958 225.279 137.495 229.599Z" fill="#6F7980"/>
<path d="M181.754 313.119C226.734 313.119 264.157 299.079 272.793 280.719C273.513 278.919 273.872 277.119 274.592 275.319C274.592 274.239 274.952 273.519 274.952 272.439C274.952 250.119 233.211 232.119 182.114 232.119C131.017 232.119 89.2764 250.119 89.2764 272.439C89.2764 273.519 89.2764 274.239 89.6362 275.319C89.996 277.119 90.7157 278.919 91.4354 280.719C99.3518 299.079 136.775 313.119 181.754 313.119Z" fill="#3E4347"/>
<path d="M181.756 313.119C226.735 313.119 264.158 299.079 272.794 280.719C272.794 279.999 273.154 279.639 273.154 278.919C265.598 259.839 227.455 245.439 181.396 245.439C135.337 245.439 97.1943 259.839 89.6377 278.919C89.9975 279.639 89.9975 279.999 89.9975 280.719C99.3533 299.079 136.776 313.119 181.756 313.119Z" fill="#FBBF67"/>
<path d="M194.349 265.24C176.357 264.88 154.407 279.28 139.654 278.2C115.185 276.4 140.374 288.28 157.646 288.28C169.16 288.28 177.077 277.84 183.194 273.52C191.83 268.12 213.06 265.6 194.349 265.24Z" fill="#D33B23"/>
<path d="M141.094 253.361C136.416 240.401 109.428 261.641 132.458 266.321C136.056 267.041 145.052 264.881 141.094 253.361ZM193.27 294.041C187.513 278.201 154.048 304.481 182.835 309.881C187.153 310.601 198.308 308.081 193.27 294.041ZM199.387 248.681C193.99 235.721 160.525 256.961 188.952 261.641C192.91 262.001 204.065 259.841 199.387 248.681ZM254.442 262.721C252.283 248.681 209.463 256.601 238.969 271.361C243.288 273.521 256.242 275.321 254.442 262.721Z" fill="#FF8736"/>
<path d="M119.143 275.32C115.184 269.92 109.427 262.72 107.268 266.32C104.029 271.36 102.95 281.44 105.469 281.8C123.461 285.4 122.021 279.64 119.143 275.32ZM218.098 265.24C211.621 268.12 207.662 265.96 204.784 270.28C197.947 280 221.336 283.24 225.654 277.48C228.893 273.52 222.416 263.44 218.098 265.24ZM223.495 289.36C218.817 287.2 219.897 294.4 212.7 288.64C207.662 284.68 196.867 294.76 204.064 301.6C211.98 309.16 214.139 301.96 217.378 302.68C224.215 303.76 236.089 294.76 223.495 289.36ZM144.331 291.52C140.013 287.2 133.176 299.44 135.695 302.68C141.093 309.88 160.524 308.44 165.562 303.04C172.039 296.56 154.766 301.6 144.331 291.52Z" fill="#89664C"/>
<path d="M127.78 287.921C127.78 287.921 128.14 292.241 128.86 294.041C124.182 292.241 124.182 283.961 124.182 283.961C124.182 283.961 120.943 285.761 121.303 289.001C116.265 284.681 111.947 286.841 111.947 286.841C111.947 286.841 118.424 290.441 119.504 292.961C115.905 293.321 113.746 294.401 112.307 297.281C112.307 297.281 119.504 293.681 124.901 296.201C122.742 298.001 123.822 302.321 123.822 302.321C132.458 293.321 137.855 301.241 141.814 299.081C138.575 294.761 133.897 294.041 133.897 294.041C132.098 290.441 127.78 287.921 127.78 287.921ZM166.642 252.641C162.324 251.921 158.006 254.081 158.006 254.081C158.006 254.081 161.965 255.881 163.764 256.601C159.806 259.841 152.609 255.521 152.609 255.521C152.609 255.521 152.609 259.121 155.487 260.561C149.37 262.721 148.651 267.761 148.651 267.761C148.651 267.761 155.128 264.161 157.646 264.521C155.847 267.761 155.847 270.281 158.006 272.801C158.006 272.801 158.726 264.881 163.764 261.641C164.124 264.521 168.442 265.601 168.442 265.601C165.203 253.721 174.919 253.001 174.919 248.681C169.881 248.681 166.642 252.641 166.642 252.641ZM250.484 285.041C252.283 283.241 259.84 282.161 259.84 282.161C259.84 282.161 256.602 278.561 250.124 280.361C251.564 277.481 249.405 274.601 249.405 274.601C249.405 274.601 246.166 282.161 241.129 282.161C242.568 280.361 244.367 276.761 244.367 276.761C244.367 276.761 239.329 277.841 236.451 281.081C236.451 281.081 231.773 279.641 227.455 282.521C229.974 286.121 238.25 280.721 242.568 292.241C242.568 292.241 245.087 288.641 244.007 286.121C249.765 285.761 255.162 291.881 255.162 291.881C255.162 288.641 253.723 286.841 250.484 285.041Z" fill="#699635"/>
<path opacity="0.6" d="M184.633 196.84C171.319 183.16 180.315 163 180.315 163C180.315 163 152.248 189.64 169.879 208C190.39 229.24 180.315 242.2 180.315 242.2C180.315 242.2 205.503 218.44 184.633 196.84ZM145.051 209.08C134.975 199.36 141.812 184.6 141.812 184.6C141.812 184.6 120.942 204.04 134.256 217.36C149.729 232.84 141.812 242.2 141.812 242.2C141.812 242.2 160.524 224.92 145.051 209.08ZM224.215 209.08C214.139 199.36 220.976 184.6 220.976 184.6C220.976 184.6 200.106 204.04 213.42 217.36C228.893 232.84 220.976 242.2 220.976 242.2C220.976 242.2 239.688 224.92 224.215 209.08Z" fill="#A6AEB0"/>
<path d="M119.496 401.791C123.847 401.78 126.597 403.23 126.607 405.615C126.597 407.989 123.847 409.407 119.496 409.396C115.167 409.407 112.363 407.989 112.363 405.615C112.363 403.23 115.167 401.78 119.496 401.791ZM110.58 412.727V410.535H128.412V412.727H110.58ZM112.643 420.762V414.102H126.285V420.762H112.643ZM115.221 405.615C115.199 406.711 116.757 407.27 119.496 407.27C122.192 407.27 123.771 406.711 123.771 405.615C123.771 404.487 122.192 403.918 119.496 403.918C116.757 403.918 115.199 404.487 115.221 405.615ZM115.35 418.57H123.6V416.271H115.35V418.57ZM136.652 404.197C136.63 406.636 138.027 409.01 141.249 409.977L139.874 412.125C137.651 411.416 136.104 410.02 135.234 408.236C134.353 410.159 132.763 411.685 130.464 412.426L129.089 410.277C132.355 409.235 133.794 406.689 133.794 404.197V402.328H136.652V404.197ZM132.076 416.121V413.93H145.525V420.977H142.775V416.121H132.076ZM142.775 413.092V401.426H145.525V413.092H142.775ZM163.766 402.693V403.896C163.744 405.508 163.744 407.667 163.164 410.804C163.863 410.75 164.55 410.696 165.227 410.621L165.42 412.641C163.616 412.898 161.779 413.06 159.963 413.167V419.902H157.213V413.296C155.591 413.339 154.034 413.35 152.573 413.35L152.229 411.137C154.71 411.126 157.557 411.104 160.404 410.976C160.576 410.116 160.715 409.321 160.812 408.591L153.754 409.203L153.389 406.947L161.005 406.625C161.048 405.98 161.059 405.411 161.07 404.885H153.862V402.693H163.766ZM166.344 420.977V401.426H169.116V420.977H166.344ZM188.828 416.379V418.613H170.931V416.379H188.828ZM171.662 411.352C175.937 410.696 178.397 408.021 178.408 405.293V405.271H172.414V403.08H187.26V405.271H181.287V405.293C181.276 408.021 183.747 410.6 188.162 411.266L187.088 413.436C183.661 412.834 181.126 411.147 179.858 408.849C178.623 411.201 176.12 412.941 172.736 413.543L171.662 411.352ZM210.506 401.426V421.02H207.735V401.426H210.506ZM194.715 409.762C194.705 405.497 196.885 402.801 199.893 402.801C202.837 402.801 205.028 405.497 205.028 409.762C205.028 414.059 202.837 416.744 199.893 416.744C196.885 416.744 194.705 414.059 194.715 409.762ZM197.358 409.762C197.347 412.673 198.368 414.263 199.893 414.252C201.376 414.263 202.375 412.673 202.385 409.762C202.375 406.861 201.376 405.271 199.893 405.271C198.368 405.271 197.347 406.861 197.358 409.762ZM217.973 402.801C220.959 402.801 223.118 405.497 223.129 409.762C223.118 414.059 220.959 416.744 217.973 416.744C214.976 416.744 212.806 414.059 212.816 409.762C212.806 405.497 214.976 402.801 217.973 402.801ZM215.459 409.762C215.459 412.673 216.48 414.263 217.973 414.252C219.498 414.263 220.497 412.673 220.508 409.762C220.497 406.861 219.498 405.271 217.973 405.271C216.48 405.271 215.459 406.861 215.459 409.762ZM225.385 420.977V401.426H228.135V405.959H230.906V408.258H228.135V411.738H230.906V413.973H228.135V420.977H225.385ZM247.718 401.426V420.977H244.947V401.426H247.718ZM231.347 415.434C236.396 413.049 238.62 409.955 239.06 405.615H232.4V403.467H241.853C241.842 409.396 239.769 414.327 232.787 417.625L231.347 415.434Z" fill="black"/>
<rect x="20.15" y="28.15" width="319.7" height="491.7" rx="15.85" stroke="#152B2E" stroke-opacity="0.16" stroke-width="0.3"/>
</g>
<defs>
<filter id="filter0_d_226_2610" x="-12" y="0" width="384" height="556" filterUnits="userSpaceOnUse" color-interpolation-filters="sRGB">
<feFlood flood-opacity="0" result="BackgroundImageFix"/>
<feColorMatrix in="SourceAlpha" type="matrix" values="0 0 0 0 0 0 0 0 0 0 0 0 0 0 0 0 0 0 127 0" result="hardAlpha"/>
<feOffset dy="4"/>
<feGaussianBlur stdDeviation="16"/>
<feComposite in2="hardAlpha" operator="out"/>
<feColorMatrix type="matrix" values="0 0 0 0 0 0 0 0 0 0 0 0 0 0 0 0 0 0 0.05 0"/>
<feBlend mode="normal" in2="BackgroundImageFix" result="effect1_dropShadow_226_2610"/>
<feBlend mode="normal" in="SourceGraphic" in2="effect1_dropShadow_226_2610" result="shape"/>
</filter>
</defs>
</svg>
