<svg width="188" height="165" viewBox="0 0 188 165" fill="none" xmlns="http://www.w3.org/2000/svg">
<path d="M1.8301 130.92L56.0011 74.4069L14.4212 14.3796C12.3715 17.0149 10.9074 20.5287 10.6146 24.6281L0.0732041 120.379C-0.219612 124.478 0.36602 127.992 1.8301 130.92ZM183.669 4.42383L105.194 77.3351L166.978 160.788C170.492 157.86 172.835 153.467 173.42 148.197L187.476 17.6006C188.061 12.3299 186.304 7.35199 183.669 4.42383Z" fill="#B0BDC6"/>
<path d="M75.3289 103.688L56.003 74.4062L1.83203 130.92C3.0033 133.555 5.05301 135.312 7.39554 135.898L156.146 164.008C160.246 164.886 164.052 163.422 166.98 160.787L105.196 77.3344L75.3289 103.688Z" fill="#CAD5DD"/>
<path d="M173.713 0.0317009L20.8629 10.2803C18.2275 10.5731 16.1778 12.0372 14.4209 14.3797L56.2936 74.407L75.6195 103.689L105.487 77.3352L183.669 4.42394C181.033 1.49578 177.52 -0.261115 173.713 0.0317009Z" fill="#DFE9EF"/>
</svg>
