<svg width="200" height="141" viewBox="0 0 200 141" fill="none" xmlns="http://www.w3.org/2000/svg">
<path d="M30.2397 105.228H1.34399C0.599349 105.228 0 104.628 0 103.882V98.2908C0 97.5453 0.599349 96.9452 1.34399 96.9452H10.9063V92.163C10.9063 91.4174 11.5056 90.8174 12.2503 90.8174H20.1417C20.8863 90.8174 21.4857 91.4174 21.4857 92.163V96.9452H30.2397C30.9844 96.9452 31.5837 97.5453 31.5837 98.2908V103.882C31.5837 104.628 30.9844 105.228 30.2397 105.228ZM16.1733 133.512C14.0574 133.512 12.1141 133.194 10.316 132.549C8.52706 131.903 6.96513 130.985 5.64838 129.803C4.32256 128.621 3.28732 127.203 2.5336 125.557C1.77988 123.911 1.40756 122.084 1.40756 120.075C1.40756 118.065 1.7708 116.256 2.50636 114.647C3.24192 113.038 4.25899 111.656 5.56666 110.51C6.87432 109.365 8.42717 108.474 10.2343 107.846C12.0414 107.219 14.0211 106.901 16.1642 106.901C18.3073 106.901 20.287 107.219 22.0941 107.846C23.9012 108.474 25.4631 109.365 26.7617 110.51C28.0694 111.656 29.0865 113.038 29.822 114.647C30.5576 116.256 30.9208 118.075 30.9208 120.075C30.9208 122.075 30.5485 123.911 29.7948 125.557C29.041 127.203 28.0058 128.621 26.68 129.803C25.3542 130.985 23.7922 131.903 21.9851 132.549C20.178 133.194 18.2347 133.512 16.1551 133.512H16.1733ZM16.1733 125.075C17.708 125.075 18.943 124.602 19.8783 123.648C20.8046 122.702 21.2768 121.502 21.2768 120.075C21.2768 118.647 20.8137 117.447 19.8783 116.502C18.943 115.556 17.708 115.074 16.1733 115.074C14.6386 115.074 13.3945 115.547 12.4682 116.502C11.5329 117.447 11.0697 118.647 11.0697 120.075C11.0697 121.502 11.5329 122.702 12.4682 123.648C13.3945 124.602 14.6386 125.075 16.1733 125.075ZM33.4635 139.158V93.6176C33.4635 92.8721 34.0628 92.2721 34.8075 92.2721H42.1086C42.8533 92.2721 43.4526 92.8721 43.4526 93.6176V109.583H48.0203C48.765 109.583 49.3643 110.183 49.3643 110.928V118.184C49.3643 118.929 48.765 119.529 48.0203 119.529H43.4526V139.149C43.4526 139.895 42.8533 140.495 42.1086 140.495H34.8075C34.0628 140.495 33.4635 139.895 33.4635 139.149V139.158Z" fill="white"/>
<path d="M53.1148 121.629H96.6128C97.3574 121.629 97.9568 122.229 97.9568 122.975V128.62C97.9568 129.366 97.3574 129.966 96.6128 129.966H80.3396V139.158C80.3396 139.903 79.7403 140.503 78.9956 140.503H70.7229C69.9782 140.503 69.3789 139.903 69.3789 139.158V129.966H53.1057C52.3611 129.966 51.7617 129.366 51.7617 128.62V122.975C51.7617 122.229 52.3611 121.629 53.1057 121.629H53.1148ZM54.8856 98.7268V93.6717C54.8856 92.9262 55.4849 92.3262 56.2296 92.3262H93.0167C93.7614 92.3262 94.3607 92.9262 94.3607 93.6717V108.137C94.3607 108.882 93.7614 109.482 93.0167 109.482H66.1097V112.328H93.7704C94.5151 112.328 95.1144 112.928 95.1144 113.674V117.756C95.1144 118.501 94.5151 119.101 93.7704 119.101H56.3385C55.5939 119.101 54.9946 118.501 54.9946 117.756V104.209C54.9946 103.464 55.5939 102.864 56.3385 102.864H83.2456V100.063H56.2296C55.4849 100.063 54.8856 99.4632 54.8856 98.7177V98.7268Z" fill="white"/>
<path d="M116.483 120.557C114.476 120.557 112.605 120.266 110.871 119.693C109.136 119.12 107.638 118.311 106.385 117.274C105.131 116.238 104.151 115.001 103.433 113.565C102.716 112.128 102.362 110.556 102.362 108.837C102.362 107.546 102.598 106.373 103.061 105.319C103.524 104.264 104.187 103.319 105.05 102.5H101.935C101.19 102.5 100.591 101.9 100.591 101.155V95.8815C100.591 95.136 101.19 94.5359 101.935 94.5359H111.225V91.6356C111.225 90.8901 111.824 90.29 112.569 90.29H120.36C121.105 90.29 121.704 90.8901 121.704 91.6356V94.5359H130.676C131.421 94.5359 132.02 95.136 132.02 95.8815V101.155C132.02 101.9 131.421 102.5 130.676 102.5H127.934C129.723 104.182 130.622 106.301 130.622 108.846C130.622 110.565 130.268 112.147 129.55 113.574C128.833 115.011 127.843 116.247 126.572 117.283C125.3 118.32 123.802 119.129 122.086 119.702C120.369 120.275 118.508 120.566 116.501 120.566L116.483 120.557ZM143.39 139.858H107.356C106.612 139.858 106.012 139.258 106.012 138.513V124.584C106.012 123.839 106.612 123.239 107.356 123.239H115.783C116.528 123.239 117.127 123.839 117.127 124.584V130.012C117.127 130.757 117.727 131.358 118.471 131.358H143.39C144.134 131.358 144.734 131.958 144.734 132.703V138.513C144.734 139.258 144.134 139.858 143.39 139.858ZM116.483 112.492C117.881 112.492 119.062 112.028 120.024 111.092C120.987 110.156 121.477 108.955 121.477 107.492C121.477 106.028 120.996 104.819 120.024 103.891C119.062 102.964 117.881 102.491 116.483 102.491C115.084 102.491 113.904 102.955 112.941 103.891C111.978 104.828 111.488 106.028 111.488 107.492C111.488 108.955 111.969 110.165 112.941 111.092C113.904 112.028 115.093 112.492 116.483 112.492ZM133.773 124.43V93.6176C133.773 92.8721 134.372 92.2721 135.117 92.2721H142.527C143.272 92.2721 143.871 92.8721 143.871 93.6176V102.809H148.166C148.911 102.809 149.51 103.409 149.51 104.155V110.928C149.51 111.674 148.911 112.274 148.166 112.274H143.871V124.421C143.871 125.166 143.272 125.766 142.527 125.766H135.117C134.372 125.766 133.773 125.166 133.773 124.421V124.43Z" fill="white"/>
<path d="M166.483 114.747C164.23 114.747 162.169 114.465 160.307 113.883C158.446 113.31 156.848 112.51 155.504 111.492C154.16 110.474 153.124 109.256 152.389 107.837C151.653 106.419 151.29 104.873 151.29 103.182C151.29 101.491 151.653 99.9364 152.389 98.4999C153.124 97.0634 154.16 95.8179 155.504 94.7632C156.848 93.7086 158.446 92.8721 160.307 92.263C162.169 91.6538 164.23 91.3447 166.483 91.3447C168.735 91.3447 170.778 91.6538 172.603 92.263C174.428 92.8721 175.999 93.7086 177.298 94.7632C178.606 95.8179 179.614 97.0634 180.331 98.4999C181.048 99.9364 181.403 101.491 181.403 103.182C181.403 104.873 181.048 106.419 180.331 107.837C179.614 109.256 178.606 110.474 177.298 111.492C175.99 112.51 174.428 113.31 172.603 113.883C170.778 114.456 168.735 114.747 166.483 114.747ZM156.121 121.466V117.647C156.121 116.902 156.72 116.302 157.465 116.302H193.017C193.762 116.302 194.361 116.902 194.361 117.647V129.312C194.361 130.057 193.762 130.658 193.017 130.658H166.973V133.076H193.88C194.625 133.076 195.224 133.676 195.224 134.422V138.831C195.224 139.577 194.625 140.177 193.88 140.177H157.574C156.829 140.177 156.23 139.577 156.23 138.831V126.466C156.23 125.721 156.829 125.121 157.574 125.121H183.618V122.811H157.465C156.72 122.811 156.121 122.211 156.121 121.466ZM166.483 107.864C167.99 107.864 169.252 107.428 170.269 106.546C171.286 105.664 171.795 104.546 171.795 103.182C171.795 101.818 171.286 100.7 170.269 99.8183C169.252 98.9364 167.99 98.4999 166.483 98.4999C164.975 98.4999 163.713 98.9364 162.696 99.8183C161.679 100.7 161.161 101.818 161.161 103.182C161.161 104.546 161.67 105.664 162.696 106.546C163.713 107.428 164.975 107.864 166.483 107.864ZM184.154 113.565V93.6177C184.154 92.8721 184.754 92.2721 185.498 92.2721H193.017C193.762 92.2721 194.361 92.8721 194.361 93.6177V98.8363H198.657C199.401 98.8363 200.001 99.4364 200.001 100.182V106.637C200.001 107.383 199.401 107.983 198.657 107.983H194.361V113.574C194.361 114.32 193.762 114.92 193.017 114.92H185.498C184.754 114.92 184.154 114.32 184.154 113.574V113.565Z" fill="white"/>
<path d="M82.2011 6.61835C73.4924 -2.10065 59.3624 -2.10065 50.6537 6.61835L33.7176 23.5745L17.3264 39.9851C8.61775 48.7041 8.61775 62.8509 17.3264 71.5699C26.0351 80.2889 40.1652 80.2889 48.8738 71.5699L65.5375 54.8865L82.2011 38.2031C90.9098 29.4841 90.9098 15.3374 82.2011 6.61835Z" fill="url(#paint0_linear_379_3313)"/>
<path d="M182.664 6.61835C173.955 -2.10065 159.825 -2.10065 151.117 6.61835L134.181 23.5745L117.789 39.9851C109.081 48.7041 109.081 62.8509 117.789 71.5699C126.498 80.2889 140.628 80.2889 149.337 71.5699L166 54.8865L182.664 38.2031C191.373 29.4841 191.373 15.3374 182.664 6.61835Z" fill="url(#paint1_linear_379_3313)"/>
<path d="M153.496 44.8951L137.768 14.9923C134.699 6.25514 126.389 0 116.618 0C104.232 0 94.1973 10.0464 94.1973 22.4476C94.1973 27.3117 95.741 31.8212 98.3745 35.4943L113.485 65.1061C117.045 72.7796 124.818 78.0983 133.827 78.0983C146.213 78.0983 156.248 68.0519 156.248 55.6507C156.248 51.7503 155.258 48.0863 153.505 44.8951H153.496Z" fill="white"/>
<path d="M132.437 6.61835C123.729 -2.10065 109.599 -2.10065 100.89 6.61835L83.954 23.5745L67.5628 39.9851C58.8541 48.7041 58.8541 62.8509 67.5628 71.5699C76.2714 80.2889 90.4015 80.2889 99.1102 71.5699L115.774 54.8865L132.437 38.2031C141.146 29.4841 141.146 15.3374 132.437 6.61835Z" fill="url(#paint2_linear_379_3313)"/>
<path d="M103.106 44.8951L87.3773 14.9923C84.3079 6.25514 75.9988 0 66.2276 0C53.8412 0 43.8066 10.0464 43.8066 22.4476C43.8066 27.3117 45.3504 31.8212 47.9839 35.4943L63.0947 65.1061C66.6544 72.7796 74.4278 78.0983 83.4361 78.0983C95.8226 78.0983 105.857 68.0519 105.857 55.6507C105.857 51.7503 104.867 48.0863 103.115 44.8951H103.106Z" fill="white"/>
<defs>
<linearGradient id="paint0_linear_379_3313" x1="10.7972" y1="39.085" x2="88.7394" y2="39.085" gradientUnits="userSpaceOnUse">
<stop stop-color="white"/>
<stop offset="0.34" stop-color="#FCFEFD"/>
<stop offset="0.48" stop-color="#F5FDFA"/>
<stop offset="0.58" stop-color="#E9FBF4"/>
<stop offset="0.66" stop-color="#D7F8EB"/>
<stop offset="0.74" stop-color="#C1F4DF"/>
<stop offset="0.8" stop-color="#A4EFD1"/>
<stop offset="0.86" stop-color="#83E9C0"/>
<stop offset="0.92" stop-color="#5CE2AD"/>
<stop offset="0.97" stop-color="#31DA97"/>
<stop offset="1" stop-color="#10D587"/>
</linearGradient>
<linearGradient id="paint1_linear_379_3313" x1="111.26" y1="39.085" x2="189.193" y2="39.085" gradientUnits="userSpaceOnUse">
<stop stop-color="#10D587"/>
<stop offset="0.03" stop-color="#2DDA96"/>
<stop offset="0.08" stop-color="#59E1AB"/>
<stop offset="0.14" stop-color="#81E8BF"/>
<stop offset="0.21" stop-color="#A3EED0"/>
<stop offset="0.27" stop-color="#BFF3DF"/>
<stop offset="0.35" stop-color="#D7F8EB"/>
<stop offset="0.44" stop-color="#E9FBF4"/>
<stop offset="0.54" stop-color="#F5FDFA"/>
<stop offset="0.68" stop-color="#FCFEFD"/>
<stop offset="1" stop-color="white"/>
</linearGradient>
<linearGradient id="paint2_linear_379_3313" x1="61.0335" y1="-74.2802" x2="138.967" y2="-74.2802" gradientUnits="userSpaceOnUse">
<stop stop-color="#10D587"/>
<stop offset="0.03" stop-color="#2DDA96"/>
<stop offset="0.08" stop-color="#59E1AB"/>
<stop offset="0.14" stop-color="#81E8BF"/>
<stop offset="0.21" stop-color="#A3EED0"/>
<stop offset="0.27" stop-color="#BFF3DF"/>
<stop offset="0.35" stop-color="#D7F8EB"/>
<stop offset="0.44" stop-color="#E9FBF4"/>
<stop offset="0.54" stop-color="#F5FDFA"/>
<stop offset="0.68" stop-color="#FCFEFD"/>
<stop offset="1" stop-color="white"/>
</linearGradient>
</defs>
</svg>
