<svg width="195" height="153" viewBox="0 0 195 153" fill="none" xmlns="http://www.w3.org/2000/svg">
<circle cx="76.1011" cy="76.2563" r="75.8989" fill="#FFC84D"/>
<path d="M50.6855 90.498L31.2736 81.4314L70.0975 81.4314L50.6855 90.498Z" fill="#222121"/>
<path d="M102.748 90.498L83.3361 81.4314L122.16 81.4314L102.748 90.498Z" fill="#222121"/>
<path d="M161.269 38.0425V33.2403H166.071V28.438H170.874V23.6358H175.676V18.8335H161.269V14.0312H194.885V18.8335H190.083V23.6358H185.28V28.438H180.478V33.2403H194.885V38.0425H161.269Z" fill="#6391FF"/>
<path d="M123.618 38.0425V33.2403H128.42V28.438H133.222V23.6358H138.024V18.8335H123.618V14.0312H157.233V18.8335H152.431V23.6358H147.629V28.438H142.827V33.2403H157.233V38.0425H123.618Z" fill="#6391FF"/>
<path d="M85.9688 38.0425V33.2403H90.771V28.438H95.5733V23.6358H100.376V18.8335H85.9688V14.0312H119.585V18.8335H114.782V23.6358H109.98V28.438H105.178V33.2403H119.585V38.0425H85.9688Z" fill="#6391FF"/>
</svg>
