<svg width="320" height="68" viewBox="0 0 320 68" fill="none" xmlns="http://www.w3.org/2000/svg">
<path d="M25.166 5.42578V11.6016H23.666V11.2617H21.7324V10.3594H23.666V5.42578H25.166ZM16.1309 9.17578C18.1934 9.18164 20.748 9.16992 23.0332 8.95312L23.1035 9.87891C22.1602 10.002 21.1934 10.084 20.2441 10.1367V11.625H18.7676V10.1895C17.8945 10.2129 17.0566 10.2129 16.2832 10.207L16.1309 9.17578ZM16.8574 7.17188C16.8574 6.21094 17.9355 5.57227 19.5645 5.56641C21.1523 5.57227 22.2422 6.21094 22.248 7.17188C22.2422 8.16211 21.1523 8.77148 19.5645 8.76562C17.9355 8.77148 16.8574 8.16211 16.8574 7.17188ZM17.6543 12.9258V11.918H25.166V14.4141H19.166V14.9648H25.4121V16.0078H17.7012V13.4531H23.6777V12.9258H17.6543ZM18.2754 7.17188C18.2637 7.56445 18.7559 7.78711 19.5645 7.79297C20.3496 7.78711 20.8477 7.56445 20.8535 7.17188C20.8477 6.7793 20.3496 6.54492 19.5645 6.55078C18.7559 6.54492 18.2637 6.7793 18.2754 7.17188Z" fill="white"/>
<circle cx="21" cy="46" r="16.5" stroke="white" stroke-opacity="0.24" stroke-width="3"/>
<path d="M23.1387 38.8594V53H20.9707V41.0078H20.8926L17.5137 43.2148V41.1641L21.0293 38.8594H23.1387Z" fill="#F3F3F3"/>
<path d="M70.9951 5.41406V9.75H72.3896V10.9922H70.9951V16.0781H69.4834V5.41406H70.9951ZM62.335 13.0664C63.1143 13.0664 64.0225 13.0664 64.9717 13.043V12.1289C63.8408 11.9062 63.1025 11.1855 63.1084 10.1953C63.1025 9.00586 64.1807 8.19141 65.7334 8.19141C67.2568 8.19141 68.3467 9.00586 68.3584 10.1953C68.3467 11.1855 67.5967 11.9121 66.4717 12.1289V12.9902C67.3154 12.9434 68.165 12.873 68.9561 12.7617L69.0498 13.8516C66.7822 14.2734 64.333 14.291 62.5342 14.2852L62.335 13.0664ZM62.5459 7.76953V6.59766H64.9717V5.47266H66.4717V6.59766H68.874V7.76953H62.5459ZM64.5264 10.1953C64.5205 10.7578 65.001 11.0625 65.7334 11.0625C66.4424 11.0625 66.917 10.7578 66.917 10.1953C66.917 9.64453 66.4424 9.33398 65.7334 9.32812C65.001 9.33398 64.5205 9.64453 64.5264 10.1953Z" fill="white"/>
<circle cx="67.333" cy="46" r="16.5" stroke="white" stroke-opacity="0.24" stroke-width="3"/>
<path d="M62.6357 53V51.4375L67.5381 46.4961C69.0908 44.8848 69.8623 43.9863 69.8623 42.7461C69.8623 41.3496 68.7295 40.4609 67.2451 40.4609C65.6729 40.4609 64.6768 41.457 64.667 42.9609H62.6357C62.6162 40.373 64.5889 38.6641 67.2842 38.6641C70.0088 38.6641 71.8936 40.3926 71.9131 42.6875C71.8936 44.2695 71.1514 45.5293 68.4951 48.1367L65.624 51.0469V51.1641H72.1475V53H62.6357Z" fill="#F3F3F3"/>
<path d="M114.458 6.24609C114.452 7.50586 115.741 8.89453 118.185 9.19922L117.599 10.4062C115.735 10.1367 114.37 9.27539 113.673 8.12109C112.97 9.26953 111.61 10.1367 109.771 10.4062L109.173 9.19922C111.599 8.89453 112.882 7.50586 112.888 6.24609V5.73047H114.458V6.24609ZM108.798 12.4336V11.2148H118.524V12.4336H114.376V16.0781H112.899V12.4336H108.798Z" fill="white"/>
<circle cx="113.667" cy="46" r="16.5" stroke="white" stroke-width="3"/>
<path d="M113.696 53.1953C110.767 53.1953 108.687 51.623 108.599 49.3086H110.786C110.864 50.5488 112.095 51.3398 113.677 51.3398C115.386 51.3398 116.626 50.4121 116.626 49.0352C116.626 47.6387 115.464 46.6426 113.442 46.6328H112.231V44.875H113.442C115.054 44.8848 116.177 43.9863 116.177 42.6289C116.177 41.3398 115.21 40.4609 113.716 40.4609C112.3 40.4609 111.03 41.252 110.981 42.5312H108.911C108.97 40.2266 111.099 38.6641 113.735 38.6641C116.519 38.6641 118.267 40.4219 118.247 42.5117C118.267 44.123 117.271 45.2754 115.747 45.6562V45.7539C117.681 46.0273 118.804 47.3262 118.794 49.1133C118.804 51.4668 116.626 53.1953 113.696 53.1953Z" fill="#F3F3F3"/>
<path d="M163.627 5.83594V9.58594H160.732V10.6055H164.857V11.8125H155.131V10.6055H159.232V9.58594H156.338V5.83594H163.627ZM156.209 13.7695V12.5977H163.674V16.0781H162.186V13.7695H156.209ZM157.803 8.41406H162.162V6.99609H157.803V8.41406Z" fill="white"/>
<circle cx="160" cy="46" r="16.5" stroke="white" stroke-width="3"/>
<path d="M154.59 50.2461V48.5078L160.84 38.8594H163.496V48.4297H165.43V50.2461H163.496V53H161.465V50.2461H154.59ZM156.855 48.4297H161.465V41.418H161.309L156.855 48.3125V48.4297Z" fill="#F3F3F3"/>
<circle cx="206.333" cy="11" r="11" fill="white"/>
<path d="M210.065 5.89453V6.75C210.071 7.58203 210.071 8.50195 209.813 9.72656H211.226V10.9336H201.464V9.72656H208.308C208.536 8.66602 208.565 7.83984 208.577 7.08984H202.659V5.89453H210.065ZM202.624 15.9609V12.0586H210.03V15.9609H202.624ZM204.089 14.7656H208.542V13.2305H204.089V14.7656Z" fill="#10D688"/>
<circle cx="206.333" cy="46" r="16.5" stroke="white" stroke-width="3"/>
<path d="M206.323 53.1953C203.647 53.1953 201.636 51.5645 201.538 49.3086H203.628C203.745 50.5098 204.897 51.3887 206.323 51.3984C208.042 51.3887 209.272 50.1484 209.272 48.4688C209.272 46.75 208.003 45.5 206.226 45.4805C205.093 45.4805 204.224 45.8613 203.745 46.7305H201.714L202.632 38.8594H210.64V40.6953H204.409L203.94 44.6602H204.077C204.663 44.0938 205.659 43.7129 206.733 43.7031C209.399 43.7129 211.362 45.6855 211.362 48.4102C211.362 51.1934 209.272 53.1953 206.323 53.1953Z" fill="#F3F3F3"/>
<path d="M256.493 10.6992V11.8828H253.423V13.6875H257.56V14.8828H247.798V13.6875H251.911V11.8828H248.946V6.15234H256.411V7.34766H250.47V8.41406H256.165V9.58594H250.47V10.6992H256.493Z" fill="white"/>
<circle cx="252.667" cy="46" r="16.5" stroke="white" stroke-opacity="0.24" stroke-width="3"/>
<path d="M252.804 53.1953C250.187 53.1758 247.452 51.623 247.452 46.3984C247.462 41.4766 249.591 38.6641 252.979 38.6641C255.587 38.6641 257.394 40.2852 257.726 42.5312H255.597C255.313 41.3789 254.405 40.5488 252.979 40.5391C250.792 40.5488 249.522 42.4434 249.522 45.6367H249.679C250.45 44.4355 251.778 43.7324 253.312 43.7227C255.831 43.7324 257.862 45.666 257.862 48.3711C257.862 51.1152 255.841 53.2148 252.804 53.1953ZM249.776 48.4297C249.786 50.002 251.046 51.3887 252.784 51.3984C254.493 51.3887 255.772 50.0605 255.772 48.4102C255.772 46.7891 254.542 45.4707 252.843 45.4805C251.114 45.4707 249.796 46.8574 249.776 48.4297Z" fill="#F3F3F3"/>
<path d="M297.166 5.73047C298.789 5.72461 300.008 6.74414 300.014 8.16797C300.008 9.58008 298.789 10.5879 297.166 10.5938C295.52 10.5879 294.295 9.58008 294.295 8.16797C294.295 6.74414 295.52 5.72461 297.166 5.73047ZM295.748 8.16797C295.736 8.92969 296.34 9.38086 297.166 9.38672C297.975 9.38086 298.566 8.92969 298.572 8.16797C298.566 7.40039 297.975 6.94922 297.166 6.94922C296.346 6.94922 295.736 7.40039 295.748 8.16797ZM295.9 12.3516V11.2031H303.061V14.0977H297.389V14.7891H303.354V15.9609H295.924V13.0078H301.572V12.3516H295.9ZM301.561 10.7578V5.41406H303.061V10.7578H301.561Z" fill="white"/>
<circle cx="299" cy="46" r="16.5" stroke="white" stroke-opacity="0.24" stroke-width="3"/>
<path d="M295.143 53L301.451 40.8125V40.6953H294.166V38.8594H303.678V40.7734L297.389 53H295.143Z" fill="#F3F3F3"/>
</svg>
