<svg width="360" height="72" viewBox="0 0 360 72" fill="none" xmlns="http://www.w3.org/2000/svg">
<path d="M45.166 6.42578V12.6016H43.666V12.2617H41.7324V11.3594H43.666V6.42578H45.166ZM36.1309 10.1758C38.1934 10.1816 40.748 10.1699 43.0332 9.95312L43.1035 10.8789C42.1602 11.002 41.1934 11.084 40.2441 11.1367V12.625H38.7676V11.1895C37.8945 11.2129 37.0566 11.2129 36.2832 11.207L36.1309 10.1758ZM36.8574 8.17188C36.8574 7.21094 37.9355 6.57227 39.5645 6.56641C41.1523 6.57227 42.2422 7.21094 42.248 8.17188C42.2422 9.16211 41.1523 9.77148 39.5645 9.76562C37.9355 9.77148 36.8574 9.16211 36.8574 8.17188ZM37.6543 13.9258V12.918H45.166V15.4141H39.166V15.9648H45.4121V17.0078H37.7012V14.4531H43.6777V13.9258H37.6543ZM38.2754 8.17188C38.2637 8.56445 38.7559 8.78711 39.5645 8.79297C40.3496 8.78711 40.8477 8.56445 40.8535 8.17188C40.8477 7.7793 40.3496 7.54492 39.5645 7.55078C38.7559 7.54492 38.2637 7.7793 38.2754 8.17188Z" fill="white"/>
<circle cx="41" cy="47" r="16.5" stroke="white" stroke-opacity="0.24" stroke-width="3"/>
<path d="M43.1387 39.8594V54H40.9707V42.0078H40.8926L37.5137 44.2148V42.1641L41.0293 39.8594H43.1387Z" fill="#F3F3F3"/>
<path d="M90.9951 6.41406V10.75H92.3896V11.9922H90.9951V17.0781H89.4834V6.41406H90.9951ZM82.335 14.0664C83.1143 14.0664 84.0225 14.0664 84.9717 14.043V13.1289C83.8408 12.9062 83.1025 12.1855 83.1084 11.1953C83.1025 10.0059 84.1807 9.19141 85.7334 9.19141C87.2568 9.19141 88.3467 10.0059 88.3584 11.1953C88.3467 12.1855 87.5967 12.9121 86.4717 13.1289V13.9902C87.3154 13.9434 88.165 13.873 88.9561 13.7617L89.0498 14.8516C86.7822 15.2734 84.333 15.291 82.5342 15.2852L82.335 14.0664ZM82.5459 8.76953V7.59766H84.9717V6.47266H86.4717V7.59766H88.874V8.76953H82.5459ZM84.5264 11.1953C84.5205 11.7578 85.001 12.0625 85.7334 12.0625C86.4424 12.0625 86.917 11.7578 86.917 11.1953C86.917 10.6445 86.4424 10.334 85.7334 10.3281C85.001 10.334 84.5205 10.6445 84.5264 11.1953Z" fill="white"/>
<circle cx="87.333" cy="47" r="16.5" stroke="white" stroke-opacity="0.24" stroke-width="3"/>
<path d="M82.6357 54V52.4375L87.5381 47.4961C89.0908 45.8848 89.8623 44.9863 89.8623 43.7461C89.8623 42.3496 88.7295 41.4609 87.2451 41.4609C85.6729 41.4609 84.6768 42.457 84.667 43.9609H82.6357C82.6162 41.373 84.5889 39.6641 87.2842 39.6641C90.0088 39.6641 91.8936 41.3926 91.9131 43.6875C91.8936 45.2695 91.1514 46.5293 88.4951 49.1367L85.624 52.0469V52.1641H92.1475V54H82.6357Z" fill="#F3F3F3"/>
<path d="M134.458 7.24609C134.452 8.50586 135.741 9.89453 138.185 10.1992L137.599 11.4062C135.735 11.1367 134.37 10.2754 133.673 9.12109C132.97 10.2695 131.61 11.1367 129.771 11.4062L129.173 10.1992C131.599 9.89453 132.882 8.50586 132.888 7.24609V6.73047H134.458V7.24609ZM128.798 13.4336V12.2148H138.524V13.4336H134.376V17.0781H132.899V13.4336H128.798Z" fill="white"/>
<circle cx="133.667" cy="47" r="16.5" stroke="white" stroke-width="3"/>
<path d="M133.696 54.1953C130.767 54.1953 128.687 52.623 128.599 50.3086H130.786C130.864 51.5488 132.095 52.3398 133.677 52.3398C135.386 52.3398 136.626 51.4121 136.626 50.0352C136.626 48.6387 135.464 47.6426 133.442 47.6328H132.231V45.875H133.442C135.054 45.8848 136.177 44.9863 136.177 43.6289C136.177 42.3398 135.21 41.4609 133.716 41.4609C132.3 41.4609 131.03 42.252 130.981 43.5312H128.911C128.97 41.2266 131.099 39.6641 133.735 39.6641C136.519 39.6641 138.267 41.4219 138.247 43.5117C138.267 45.123 137.271 46.2754 135.747 46.6562V46.7539C137.681 47.0273 138.804 48.3262 138.794 50.1133C138.804 52.4668 136.626 54.1953 133.696 54.1953Z" fill="#F3F3F3"/>
<path d="M183.627 6.83594V10.5859H180.732V11.6055H184.857V12.8125H175.131V11.6055H179.232V10.5859H176.338V6.83594H183.627ZM176.209 14.7695V13.5977H183.674V17.0781H182.186V14.7695H176.209ZM177.803 9.41406H182.162V7.99609H177.803V9.41406Z" fill="white"/>
<circle cx="180" cy="47" r="16.5" stroke="white" stroke-width="3"/>
<path d="M174.59 51.2461V49.5078L180.84 39.8594H183.496V49.4297H185.43V51.2461H183.496V54H181.465V51.2461H174.59ZM176.855 49.4297H181.465V42.418H181.309L176.855 49.3125V49.4297Z" fill="#F3F3F3"/>
<circle cx="226.333" cy="12" r="11" fill="white"/>
<path d="M230.065 6.89453V7.75C230.071 8.58203 230.071 9.50195 229.813 10.7266H231.226V11.9336H221.464V10.7266H228.308C228.536 9.66602 228.565 8.83984 228.577 8.08984H222.659V6.89453H230.065ZM222.624 16.9609V13.0586H230.03V16.9609H222.624ZM224.089 15.7656H228.542V14.2305H224.089V15.7656Z" fill="#10D688"/>
<circle cx="226.333" cy="47" r="16.5" stroke="white" stroke-width="3"/>
<path d="M226.323 54.1953C223.647 54.1953 221.636 52.5645 221.538 50.3086H223.628C223.745 51.5098 224.897 52.3887 226.323 52.3984C228.042 52.3887 229.272 51.1484 229.272 49.4688C229.272 47.75 228.003 46.5 226.226 46.4805C225.093 46.4805 224.224 46.8613 223.745 47.7305H221.714L222.632 39.8594H230.64V41.6953H224.409L223.94 45.6602H224.077C224.663 45.0938 225.659 44.7129 226.733 44.7031C229.399 44.7129 231.362 46.6855 231.362 49.4102C231.362 52.1934 229.272 54.1953 226.323 54.1953Z" fill="#F3F3F3"/>
<path d="M276.493 11.6992V12.8828H273.423V14.6875H277.56V15.8828H267.798V14.6875H271.911V12.8828H268.946V7.15234H276.411V8.34766H270.47V9.41406H276.165V10.5859H270.47V11.6992H276.493Z" fill="white"/>
<circle cx="272.667" cy="47" r="16.5" stroke="white" stroke-opacity="0.24" stroke-width="3"/>
<path d="M272.804 54.1953C270.187 54.1758 267.452 52.623 267.452 47.3984C267.462 42.4766 269.591 39.6641 272.979 39.6641C275.587 39.6641 277.394 41.2852 277.726 43.5312H275.597C275.313 42.3789 274.405 41.5488 272.979 41.5391C270.792 41.5488 269.522 43.4434 269.522 46.6367H269.679C270.45 45.4355 271.778 44.7324 273.312 44.7227C275.831 44.7324 277.862 46.666 277.862 49.3711C277.862 52.1152 275.841 54.2148 272.804 54.1953ZM269.776 49.4297C269.786 51.002 271.046 52.3887 272.784 52.3984C274.493 52.3887 275.772 51.0605 275.772 49.4102C275.772 47.7891 274.542 46.4707 272.843 46.4805C271.114 46.4707 269.796 47.8574 269.776 49.4297Z" fill="#F3F3F3"/>
<path d="M317.166 6.73047C318.789 6.72461 320.008 7.74414 320.014 9.16797C320.008 10.5801 318.789 11.5879 317.166 11.5938C315.52 11.5879 314.295 10.5801 314.295 9.16797C314.295 7.74414 315.52 6.72461 317.166 6.73047ZM315.748 9.16797C315.736 9.92969 316.34 10.3809 317.166 10.3867C317.975 10.3809 318.566 9.92969 318.572 9.16797C318.566 8.40039 317.975 7.94922 317.166 7.94922C316.346 7.94922 315.736 8.40039 315.748 9.16797ZM315.9 13.3516V12.2031H323.061V15.0977H317.389V15.7891H323.354V16.9609H315.924V14.0078H321.572V13.3516H315.9ZM321.561 11.7578V6.41406H323.061V11.7578H321.561Z" fill="white"/>
<circle cx="319" cy="47" r="16.5" stroke="white" stroke-opacity="0.24" stroke-width="3"/>
<path d="M315.143 54L321.451 41.8125V41.6953H314.166V39.8594H323.678V41.7734L317.389 54H315.143Z" fill="#F3F3F3"/>
</svg>
